#!OML:ASF I:\Actors\actors\Patient Classification 2\Patient 1\Session 1\actor1.ASF
:FULLY-SPECIFIED
:DEGREES
135
root -0.742105 18.1668 4.90734 2.87631 -0.978113 -2.08259
lowerback -1.50073 1.22223 0.450473
upperback -2.68508 1.63489 0.359276
thorax -1.90817 0.812691 0.112694
lowerneck -10.7935 -2.46353 -1.38569
upperneck 25.7659 -3.67526 1.81791
head 10.0173 -1.62919 0.442871
rclavicle 2.99544e-014 7.95139e-015
rhumerus -52.4857 -8.35071 -83.3357
rradius 45.551
rwrist 9.90399
rhand -6.86536 -41.5226
rfingers 7.12502
rthumb 19.0003 -70.6145
lclavicle 2.99544e-014 7.95139e-015
lhumerus -41.1955 0.624594 90.4387
lradius 35.8674
lwrist -6.87565
lhand -5.72916 -25.3925
lfingers 7.12502
lthumb 20.0927 3.5885
rfemur 11.2658 2.59904 17.2243
rtibia -9.60085
rfoot -14.189 -14.6558
rtoes 4.37526
lfemur 12.4644 -8.10452 -13.2247
ltibia -11.7538
lfoot -7.23703 16.7496
ltoes -10.8256
136
root -0.742597 18.1664 4.90857 2.87561 -0.972457 -2.09486
lowerback -1.50962 1.23152 0.475797
upperback -2.67697 1.6471 0.359702
thorax -1.89413 0.818351 0.0992772
lowerneck -10.8203 -2.49146 -1.44409
upperneck 25.8297 -3.71576 1.86337
head 10.0486 -1.64761 0.463393
rclavicle -3.06874e-015 1.11319e-014
rhumerus -52.4683 -8.31745 -83.3634
rradius 45.5512
rwrist 9.85255
rhand -6.8618 -41.4628
rfingers 7.12502
rthumb 19.0037 -70.5544
lclavicle -3.06874e-015 1.11319e-014
lhumerus -41.1976 0.554805 90.4687
lradius 35.8867
lwrist -6.90859
lhand -5.61688 -25.3556
lfingers 7.12502
lthumb 20.2006 3.61402
rfemur 11.2672 2.59252 17.2446
rtibia -9.59785
rfoot -14.1977 -14.6644
rtoes 4.34262
lfemur 12.4768 -8.19636 -13.2183
ltibia -11.7606
lfoot -7.30728 16.831
ltoes -10.7345
137
root -0.743447 18.1664 4.90907 2.87893 -0.94871 -2.09733
lowerback -1.51437 1.22654 0.468919
upperback -2.66856 1.64041 0.361037
thorax -1.88306 0.815182 0.10473
lowerneck -10.873 -2.51658 -1.50828
upperneck 25.9372 -3.76349 1.95112
head 10.102 -1.66456 0.498438
rclavicle -3.05631e-015 -1.11319e-014
rhumerus -52.4761 -8.32418 -83.3768
rradius 45.5875
rwrist 9.86549
rhand -6.85583 -41.4926
rfingers 7.12502
rthumb 19.0095 -70.5836
lclavicle -3.05631e-015 -1.11319e-014
lhumerus -41.173 0.500475 90.4687
lradius 35.8897
lwrist -7.04064
lhand -5.02055 -25.0042
lfingers 7.12502
lthumb 20.7737 3.90384
rfemur 11.2656 2.56744 17.255
rtibia -9.58795
rfoot -14.1949 -14.6756
rtoes 4.22657
lfemur 12.4816 -8.18158 -13.2057
ltibia -11.7822
lfoot -7.31694 16.806
ltoes -10.7145
138
root -0.744571 18.1661 4.90969 2.84964 -0.931409 -2.102
lowerback -1.48364 1.21732 0.438734
upperback -2.65728 1.62853 0.372745
thorax -1.8899 0.809937 0.13304
lowerneck -10.9274 -2.52915 -1.54637
upperneck 26.0866 -3.80308 2.04819
head 10.1707 -1.67372 0.533265
rclavicle -1.04735e-014 7.95139e-016
rhumerus -52.5005 -8.29498 -83.4058
rradius 45.6477
rwrist 9.82457
rhand -6.91773 -41.5389
rfingers 7.12502
rthumb 18.9499 -70.6358
lclavicle -1.04735e-014 7.95139e-016
lhumerus -41.1451 0.354112 90.4943
lradius 35.9007
lwrist -7.17778
lhand -3.94266 -24.259
lfingers 7.12502
lthumb 21.809 4.5322
rfemur 11.3065 2.55215 17.2602
rtibia -9.58581
rfoot -14.2029 -14.6566
rtoes 4.26496
lfemur 12.5241 -8.15118 -13.1937
ltibia -11.8085
lfoot -7.27286 16.7656
ltoes -10.575
139
root -0.745651 18.1651 4.91091 2.8181 -0.934462 -2.12728
lowerback -1.46069 1.21277 0.466299
upperback -2.63864 1.62247 0.374013
thorax -1.88288 0.806412 0.118655
lowerneck -10.9885 -2.527 -1.60424
upperneck 26.2616 -3.83019 2.18938
head 10.2514 -1.67363 0.588533
rclavicle 1.75427e-014 8.34896e-015
rhumerus -52.4986 -8.23389 -83.4796
rradius 45.6817
rwrist 9.71887
rhand -7.12031 -41.3909
rfingers 7.12502
rthumb 18.7551 -70.5068
lclavicle 1.75427e-014 8.34896e-015
lhumerus -41.1437 0.0223813 90.5856
lradius 36.0048
lwrist -7.06853
lhand -3.35333 -23.7403
lfingers 7.12502
lthumb 22.3748 4.98392
rfemur 11.3401 2.5573 17.29
rtibia -9.57889
rfoot -14.2085 -14.6423
rtoes 4.28619
lfemur 12.5847 -8.13076 -13.1728
ltibia -11.8473
lfoot -7.20376 16.802
ltoes -11.121
140
root -0.746768 18.1634 4.91164 2.77578 -0.936855 -2.18129
lowerback -1.42777 1.2072 0.554362
upperback -2.60932 1.61483 0.365345
thorax -1.86855 0.800868 0.0601902
lowerneck -11.0461 -2.54252 -1.67026
upperneck 26.474 -3.87826 2.31563
head 10.3458 -1.68537 0.637586
rclavicle -2.67862e-014 2.98177e-015
rhumerus -52.5035 -8.16493 -83.5876
rradius 45.765
rwrist 9.59524
rhand -7.3142 -41.2673
rfingers 7.12502
rthumb 18.5686 -70.4011
lclavicle -2.67862e-014 2.98177e-015
lhumerus -41.1933 -0.474794 90.7523
lradius 36.2594
lwrist -6.66737
lhand -3.38421 -23.5015
lfingers 7.12502
lthumb 22.3452 5.22635
rfemur 11.3811 2.56262 17.3542
rtibia -9.56243
rfoot -14.2117 -14.6367
rtoes 4.33667
lfemur 12.6637 -8.13406 -13.1238
ltibia -11.8937
lfoot -7.16078 16.854
ltoes -11.7573
141
root -0.747669 18.1614 4.91194 2.7187 -0.915157 -2.21184
lowerback -1.39007 1.19434 0.603299
upperback -2.57001 1.59755 0.357518
thorax -1.84779 0.791309 0.0245135
lowerneck -11.0572 -2.59035 -1.76552
upperneck 26.7319 -3.97146 2.45292
head 10.4505 -1.71948 0.690807
rclavicle 6.69656e-015 5.76476e-015
rhumerus -52.5527 -8.03558 -83.7283
rradius 45.9794
rwrist 9.41303
rhand -7.42815 -41.4079
rfingers 7.12502
rthumb 18.459 -70.5521
lclavicle 6.69656e-015 5.76476e-015
lhumerus -41.3182 -1.34345 91.1389
lradius 36.7326
lwrist -5.71871
lhand -4.22056 -23.2564
lfingers 7.12502
lthumb 21.5421 5.56552
rfemur 11.4487 2.54548 17.3864
rtibia -9.5463
rfoot -14.252 -14.5921
rtoes 4.61623
lfemur 12.7445 -8.10902 -13.0905
ltibia -11.9354
lfoot -7.12663 16.7919
ltoes -11.5942
142
root -0.748415 18.1612 4.91107 2.69917 -0.867993 -2.18153
lowerback -1.3637 1.16543 0.579146
upperback -2.5461 1.55886 0.340945
thorax -1.83831 0.772288 0.020858
lowerneck -11.1537 -2.64014 -1.88596
upperneck 27.1798 -4.07283 2.60668
head 10.6447 -1.75512 0.752319
rclavicle -1.87603e-015 -7.15625e-015
rhumerus -52.6604 -7.80734 -83.9217
rradius 46.3262
rwrist 9.22243
rhand -7.43509 -41.7557
rfingers 7.12502
rthumb 18.4523 -70.9005
lclavicle -1.87603e-015 -7.15625e-015
lhumerus -41.5766 -2.68992 91.7747
lradius 37.5826
lwrist -3.948
lhand -5.63449 -22.6976
lfingers 7.12502
lthumb 20.1837 6.27382
rfemur 11.4709 2.49949 17.3513
rtibia -9.52683
rfoot -14.3125 -14.5562
rtoes 4.87707
lfemur 12.7625 -8.02338 -13.1067
ltibia -11.9779
lfoot -7.05336 16.6884
ltoes -11.4804
143
root -0.749935 18.162 4.90871 2.68253 -0.815159 -2.18179
lowerback -1.32159 1.13397 0.590237
upperback -2.51011 1.51685 0.328524
thorax -1.82446 0.751022 0.00157848
lowerneck -11.402 -2.68248 -1.87766
upperneck 27.7942 -4.1486 2.58491
head 10.9259 -1.783 0.73027
rclavicle 4.5472e-015 0
rhumerus -52.7923 -7.47028 -84.1597
rradius 46.7223
rwrist 8.94653
rhand -7.43066 -42.1273
rfingers 7.12502
rthumb 18.4566 -71.2717
lclavicle 4.5472e-015 0
lhumerus -41.93 -4.33016 92.5125
lradius 38.8563
lwrist -1.42738
lhand -6.33042 -21.392
lfingers 7.12502
lthumb 19.5147 7.64866
rfemur 11.4839 2.44668 17.3591
rtibia -9.51055
rfoot -14.3229 -14.5659
rtoes 4.87073
lfemur 12.7713 -7.96762 -13.0905
ltibia -12.0127
lfoot -6.99518 16.6604
ltoes -11.952
144
root -0.75238 18.1621 4.90669 2.59999 -0.762967 -2.24677
lowerback -1.24831 1.10975 0.66967
upperback -2.41989 1.48451 0.327321
thorax -1.77097 0.733669 -0.0444266
lowerneck -11.5494 -2.74069 -1.81489
upperneck 28.2714 -4.24637 2.52732
head 11.1363 -1.82162 0.683985
rclavicle 1.23371e-014 -7.95139e-016
rhumerus -52.9081 -6.98573 -84.5003
rradius 47.2593
rwrist 8.50072
rhand -7.42615 -42.7257
rfingers 7.12502
rthumb 18.4609 -71.8697
lclavicle 1.23371e-014 -7.95139e-016
lhumerus -42.2538 -6.04049 93.2255
lradius 40.4196
lwrist 1.77287
lhand -6.12557 -19.6131
lfingers 7.12502
lthumb 19.7116 9.4075
rfemur 11.577 2.39839 17.4446
rtibia -9.50774
rfoot -14.2753 -14.5893
rtoes 4.57928
lfemur 12.8522 -7.91964 -13.012
ltibia -12.0297
lfoot -6.9629 16.6109
ltoes -12.3639
145
root -0.754131 18.1613 4.90378 2.49947 -0.714566 -2.24683
lowerback -1.16559 1.09052 0.706199
upperback -2.30526 1.45849 0.301056
thorax -1.69817 0.720166 -0.0919889
lowerneck -11.5944 -2.81494 -1.89142
upperneck 28.6807 -4.38685 2.65215
head 11.3116 -1.87385 0.723592
rclavicle -1.92448e-014 -3.37934e-015
rhumerus -53.0363 -6.35943 -84.9756
rradius 48.1177
rwrist 7.95692
rhand -7.33419 -43.7566
rfingers 7.12502
rthumb 18.5494 -72.8922
lclavicle -1.92448e-014 -3.37934e-015
lhumerus -42.4799 -7.68328 93.8623
lradius 42.146
lwrist 5.47282
lhand -5.59879 -17.7766
lfingers 7.12502
lthumb 20.218 11.1912
rfemur 11.6817 2.35434 17.4522
rtibia -9.50952
rfoot -14.2549 -14.5989
rtoes 4.40454
lfemur 12.9518 -7.96162 -13.019
ltibia -12.0418
lfoot -6.99362 16.6168
ltoes -12.1472
